<svg xmlns="http://www.w3.org/2000/svg" viewBox="0 0 305.11 266.02"><defs><style>.cls-1{fill:#f15a24;}.cls-2,.cls-3{stroke:#000;stroke-miterlimit:10;}.cls-2{stroke-width:1.5px;}.cls-3{fill:none;stroke-width:15px;}</style></defs><g id="Capa_2" data-name="Capa 2"><g id="Capa_1-2" data-name="Capa 1"><path class="cls-1" d="M130.77,43a67.31,67.31,0,0,0-.05,11.18,103.22,103.22,0,0,0,2.45,16.2A71,71,0,0,0,136.68,81a97.32,97.32,0,0,0,7.11,14.54,15.89,15.89,0,0,0,5.41,5.89,15.8,15.8,0,0,0,7.14,3.76l5.59.75A15.77,15.77,0,0,0,170,104.1a10.49,10.49,0,0,0,4.63-2.7,15.81,15.81,0,0,0,5.41-5.89c2.51-4.76,4.05-10.93,2.12-16.18L175.3,60.62,160.63,86.45l.33,0-5.59.75a2.22,2.22,0,0,1,.63,0l-5.58-.75a3,3,0,0,1,.59.15l-5-2.12a5,5,0,0,1,.82.45l-4.25-3.28a7.17,7.17,0,0,1,1.19,1.21l-3.28-4.25c1.8,2.47,2.79,5.61,4.06,8.37q2.11,4.62,4.34,9.19,4.4,9,9.22,17.85,9.71,17.73,21.06,34.47c7.47,11,15.68,21.56,22.46,33s10.91,24.47,18.66,35.43c9.77,13.82,21.9,25.81,33.41,38.15L274.12,220a108.07,108.07,0,0,0-18.12-1.5c-4.29.08-8.56.44-12.82.91-8.72.95-17.42,2.32-26.2,2.61a90.06,90.06,0,0,1-14.86-.78l5.58.75c-5.22-.72-10.39-1.76-15.58-2.7-6.93-1.25-13.93-2.24-20.94-2.85-10.75-.94-21.56-1-32.34-1.15q-16.45-.27-32.92-.47c-10.31-.12-20.66-.38-30.94.62a125.11,125.11,0,0,0-21.91,3.72c-5.46,1.54-10.66,4-16.3,4.91l5.58-.75a20,20,0,0,1-5.19.06l5.58.75a17.33,17.33,0,0,1-2.56-.61l9.27,35.1a28.59,28.59,0,0,0,6.15-7.45,47,47,0,0,0,4-9.15c1.11-3.12,1.81-6.38,3.09-9.45l-2.12,5a17.74,17.74,0,0,1,2.18-3.81L59.49,238a13.56,13.56,0,0,1,2.19-2.16l-4.25,3.28c2-1.51,4.41-2.47,6.58-3.79a37.73,37.73,0,0,0,12.23-12c2.25-3.34,3.63-7.29,5-11,.91-2.41,1.71-4.87,2.71-7.25l-2.12,5c3.87-9,9.82-16.86,15.78-24.58l-3.29,4.25c5.93-7.67,11.9-15.28,17-23.54,4.24-6.84,8-13.94,11.61-21.14,7.18-14.44,13.54-29.3,21.12-43.55A195.23,195.23,0,0,1,158.4,78.32H122.13c.51,1.05,1,2.12,1.45,3.2l-2.12-5c4.06,9.79,5.74,20.29,7.77,30.62a154.18,154.18,0,0,0,3.68,15.45,128.77,128.77,0,0,0,8.1,19.69c5,10,11.19,19.31,17.1,28.76S170,190.3,176.17,199.8a217.86,217.86,0,0,0,13,17.84,84.06,84.06,0,0,0,12.17,12.42l14.85-35.85q-24.91-2.52-49.93-3.72t-50.06-1.05q-14.13.08-28.26.57l20.25,26.58a67.1,67.1,0,0,1,4.11-12.81l-2.12,5c6.71-15.9,15.73-30.73,25.75-44.74q4.25-5.94,8.73-11.72l-3.28,4.25c8.78-11.34,18.06-22.28,27.36-33.2l-35.85-14.85a404.3,404.3,0,0,0-.47,40.45c.59,15.06,2.16,30,4.22,44.92q1.56,11.35,3.77,22.6l38.39-16.18c-4.53-8.4-9.45-16.81-16.27-23.59a72.13,72.13,0,0,0-8-6.57,32.62,32.62,0,0,0-4.59-2.87,54.51,54.51,0,0,0-9.63-3.93,22.85,22.85,0,0,0-2.7-.6,73.48,73.48,0,0,0-7.95-1,15.89,15.89,0,0,0-8.1,1.81,18.93,18.93,0,0,0-11.1,11.1,15.86,15.86,0,0,0-1.8,8.09c.24,5.44,2,11.07,6.15,14.85l4.25,3.29a20.87,20.87,0,0,0,10.6,2.86c.66,0,1.32.1,2,.19l-5.59-.75a25.14,25.14,0,0,1,6.08,1.72l-5-2.12a32.53,32.53,0,0,1,6.53,3.86l-4.25-3.28a41.52,41.52,0,0,1,7.29,7.4l-3.28-4.25a108.69,108.69,0,0,1,9.17,15,15.89,15.89,0,0,0,5.41,5.89,15.9,15.9,0,0,0,7.14,3.76l5.58.75a15.89,15.89,0,0,0,8.1-1.81,10.55,10.55,0,0,0,4.63-2.7,16,16,0,0,0,5.41-5.89l2.11-5a21.17,21.17,0,0,0,0-11.17q-2.34-12-4-24.05l.75,5.59a404.52,404.52,0,0,1-3.5-61q.17-8.66.7-17.3l-.75-5.58-2.11-5-3.29-4.25a15.7,15.7,0,0,0-6.76-4.34,10.36,10.36,0,0,0-5.3-1.43,10.57,10.57,0,0,0-5.58,0,10.41,10.41,0,0,0-5.3,1.43A15.82,15.82,0,0,0,139,93.69c-11.47,13.47-22.8,27-33.47,41.15A274,274,0,0,0,79.71,175.1c-2,4-3.92,8-5.66,12.07-2.54,6-5.15,11.88-6.41,18.26a21.13,21.13,0,0,0,0,11.16,15.88,15.88,0,0,0,3.76,7.15,16,16,0,0,0,5.89,5.41A21,21,0,0,0,87.89,232q25-.87,50.07-.44t50,2.21q14.08,1,28.15,2.43l5.59-.75,5-2.12,4.25-3.28a15.72,15.72,0,0,0,4.34-6.76,10.52,10.52,0,0,0,1.44-5.3,10.6,10.6,0,0,0,0-5.59,10.46,10.46,0,0,0-1.44-5.29,15.61,15.61,0,0,0-4.34-6.76,86.5,86.5,0,0,1-13.49-14.09l3.29,4.25c-6.81-8.82-12.5-18.44-18.39-27.87-6.41-10.24-13-20.4-19.16-30.79a143.43,143.43,0,0,1-8.84-17l2.11,5c-6.17-14.62-7.16-30.51-11.48-45.66a107.13,107.13,0,0,0-6.63-17.09,21,21,0,0,0-36.27,0c-9.31,12.8-16.49,26.95-23.27,41.22S85.69,127,77.73,140.64a205.71,205.71,0,0,1-15.05,22L66,158.37c-5.37,7-11,13.83-15.59,21.35a86.53,86.53,0,0,0-5.83,11.68c-1.63,3.87-2.93,7.86-4.55,11.73l2.11-5a23.23,23.23,0,0,1-2.78,4.93l3.28-4.25a15.2,15.2,0,0,1-2.39,2.42l4.25-3.28c-2.3,1.73-5,2.75-7.42,4.34a34.82,34.82,0,0,0-11.89,12.35,65.12,65.12,0,0,0-3.35,7.78c-.4,1.07-.74,2.16-1.07,3.25a69.09,69.09,0,0,1-2.23,6.79l2.11-5a17.26,17.26,0,0,1-2,3.5l3.29-4.25a12.55,12.55,0,0,1-2.18,2.19,21,21,0,0,0-5.4,20.43C16.36,256.6,22,261.72,29,264c9.51,3,19.57,1,28.7-2.22a93.46,93.46,0,0,1,18.94-4.66l-5.59.75c13.58-1.77,27.39-1.17,41-1,14.16.18,28.32.33,42.47.69a224.3,224.3,0,0,1,23.88,1.65l-5.58-.75c13.45,1.83,26.7,5.49,40.36,5.58,11.69.08,23.22-2.16,34.84-3.14a89.8,89.8,0,0,1,19.53.19l-5.58-.75.92.13,5.59.75a15.77,15.77,0,0,0,8.09-1.81,10.49,10.49,0,0,0,4.63-2.7,15.81,15.81,0,0,0,5.41-5.89l2.12-5,.75-5.58a16,16,0,0,0-1.81-8.09,15.78,15.78,0,0,0-4.35-6.76l-14.71-15.77c-4.49-4.82-9-9.67-13-14.88L259,199A87.73,87.73,0,0,1,250,184.74c-2.53-5.06-4.71-10.29-7.21-15.38-5-10.11-11.38-19.39-17.88-28.55s-12.89-18.36-18.81-27.9-11.55-19.46-16.73-29.52q-4.33-8.42-8.3-17a79.21,79.21,0,0,0-3.74-8.1,39.51,39.51,0,0,0-4.11-5.43c-.15-.17-.3-.34-.47-.5a4.18,4.18,0,0,0-.5-.43L168,48.62a22.89,22.89,0,0,0-6.29-2.69c-4.73-1.26-7.5-.81-12.26,0a15.88,15.88,0,0,0-7.15,3.76,15.86,15.86,0,0,0-5.4,5.89c-2.52,4.76-4,10.93-2.12,16.19l6.88,18.7,38.38-16.18a69.59,69.59,0,0,1-5-9.52l2.12,5a69.86,69.86,0,0,1-4.8-17.38l.75,5.58a69.32,69.32,0,0,1-.36-15A15.73,15.73,0,0,0,171,34.88a15.61,15.61,0,0,0-4.34-6.76,15.72,15.72,0,0,0-6.76-4.35,15.84,15.84,0,0,0-8.09-1.8c-5.43.24-11.06,2-14.85,6.15l-3.28,4.25A20.87,20.87,0,0,0,130.77,43Z"/><path class="cls-2" d="M160.75,242.51s13.57-32.38,23-20.91,7.59-32.67,19.85-17.06,22.19,38.11,22.19,38.11Z"/><polygon class="cls-2" points="85.75 242.65 106.75 242.65 124.75 214.65 119.75 188.65 133.75 216.65 116.75 243.65 136.75 243.65 149.75 216.65 126.75 177.65 140.75 157.65 140.75 170.65 144.75 186.65 153.75 186.65 148.75 171.65 148.75 152.65 132.75 131.65 111.3 138.25 104.75 152.65 109.75 154.65 116.75 140.65 128.75 137.65 105.75 170.65 110.75 207.65 85.75 242.65"/><ellipse class="cls-2" cx="150.75" cy="131.15" rx="12" ry="12.5"/><polygon class="cls-2" points="103.75 154.65 101.75 158.04 110.24 161.11 111.75 158.65 103.75 154.65"/><polygon class="cls-2" points="131.75 174.65 140.75 178.65 139.75 174.65 133.75 171.65 131.75 174.65"/><path class="cls-2" d="M154.75,182.65l14,7-4,9,9,4s9.15,4.69,13-3c4-8-4-13-4-13l-10-5-3,6-16-8Z"/><path d="M143.76,118.92l17.77,18.53s4,4,4.85,3.23c0,0,1.14-.14,0-2.42l-.81-1.61-.81-.81a11.68,11.68,0,0,0,4-6.44,12.28,12.28,0,0,0-.8-7.26,19,19,0,0,0-9.7-9.66c-6.46-3.23-13.73,4-13.73,4l-.81-.8-.81.8S142.14,117.31,143.76,118.92Z"/><line class="cls-3" x1="7.75" y1="258.37" x2="152.62" y2="8.65"/><line class="cls-3" x1="7.76" y1="258.37" x2="297.5" y2="258.37"/><line class="cls-3" x1="297.75" y1="258.65" x2="152.88" y2="8.93"/><circle class="cls-2" cx="7.5" cy="258.4" r="6.75"/><circle class="cls-2" cx="297.61" cy="258.52" r="6.75"/><circle class="cls-2" cx="152.45" cy="7.5" r="6.75"/></g></g></svg>